<svg width="20" height="20" viewBox="0 0 20 20" fill="none" xmlns="http://www.w3.org/2000/svg">
<path fill-rule="evenodd" clip-rule="evenodd" d="M10 2.49992C6.77834 2.49992 4.16667 5.11159 4.16667 8.33325C4.16667 10.2492 5.21344 11.7106 6.64279 13.1993C6.9847 13.5554 7.33946 13.9043 7.70182 14.2607L7.74255 14.3008C8.11574 14.6678 8.49678 15.0434 8.85971 15.4259C9.25998 15.8477 9.6508 16.2906 10 16.7623C10.3492 16.2906 10.74 15.8477 11.1403 15.4259C11.5032 15.0434 11.8843 14.6678 12.2574 14.3008L12.2982 14.2607C12.6606 13.9043 13.0153 13.5554 13.3572 13.1993C14.7866 11.7106 15.8333 10.2492 15.8333 8.33325C15.8333 5.11159 13.2217 2.49992 10 2.49992ZM2.5 8.33325C2.5 4.19112 5.85786 0.833252 10 0.833252C14.1421 0.833252 17.5 4.19112 17.5 8.33325C17.5 10.9325 16.0468 12.8045 14.5595 14.3536C14.2006 14.7274 13.8304 15.0914 13.4726 15.4433L13.4261 15.489C13.0506 15.8583 12.6895 16.2145 12.3493 16.5731C11.6654 17.2938 11.107 17.9826 10.7454 18.7059C10.6042 18.9882 10.3156 19.1666 10 19.1666C9.68436 19.1666 9.3958 18.9882 9.25464 18.7059C8.89299 17.9826 8.33459 17.2938 7.65071 16.5731C7.31051 16.2145 6.94936 15.8583 6.57385 15.489L6.52737 15.4433C6.16955 15.0914 5.79943 14.7274 5.44054 14.3536C3.95322 12.8045 2.5 10.9325 2.5 8.33325ZM10 6.24992C9.07953 6.24992 8.33333 6.99611 8.33333 7.91658C8.33333 8.83706 9.07953 9.58325 10 9.58325C10.9205 9.58325 11.6667 8.83706 11.6667 7.91658C11.6667 6.99611 10.9205 6.24992 10 6.24992ZM6.66667 7.91658C6.66667 6.07564 8.15905 4.58325 10 4.58325C11.8409 4.58325 13.3333 6.07564 13.3333 7.91658C13.3333 9.75753 11.8409 11.2499 10 11.2499C8.15905 11.2499 6.66667 9.75753 6.66667 7.91658Z" fill="#59626B"/>
</svg>
