<svg width="28" height="28" viewBox="0 0 28 28" fill="none" xmlns="http://www.w3.org/2000/svg">
<path fill-rule="evenodd" clip-rule="evenodd" d="M8.22527 3.55871C9.75682 2.02716 11.834 1.16675 14 1.16675C16.1659 1.16675 18.2431 2.02716 19.7747 3.55871C21.3062 5.09026 22.1666 7.16748 22.1666 9.33341C22.1666 12.7315 23.0207 14.9846 23.9159 16.4234L23.9297 16.4454C24.3466 17.1154 24.6761 17.645 24.8983 18.0305C25.0096 18.2237 25.111 18.4097 25.1861 18.5751C25.2236 18.6577 25.2655 18.7589 25.2983 18.8689C25.3255 18.9602 25.3773 19.1553 25.3579 19.3927C25.3448 19.5523 25.3123 19.825 25.1558 20.1068C24.9993 20.3885 24.7849 20.5602 24.6563 20.6556C24.3643 20.8722 24.029 20.9217 23.9171 20.9383L23.9119 20.939C23.7399 20.9645 23.5447 20.9772 23.3479 20.9848C22.9567 21.0001 22.4152 21.0001 21.7418 21.0001H6.25815C5.58473 21.0001 5.04323 21.0001 4.65209 20.9848C4.45521 20.9772 4.26006 20.9645 4.08808 20.939L4.0829 20.9383C3.97098 20.9217 3.63565 20.8722 3.34365 20.6556C3.21504 20.5602 3.00069 20.3885 2.84418 20.1068C2.68767 19.825 2.65513 19.5523 2.64207 19.3927C2.62265 19.1553 2.67445 18.9602 2.70164 18.8689C2.73442 18.7589 2.77635 18.6577 2.81383 18.5751C2.88892 18.4097 2.99035 18.2237 3.10167 18.0305C3.32383 17.6451 3.65337 17.1155 4.07022 16.4456L4.08403 16.4234C4.97931 14.9846 5.83331 12.7315 5.83331 9.33341C5.83331 7.16748 6.69373 5.09026 8.22527 3.55871ZM14 3.50008C12.4529 3.50008 10.9692 4.11466 9.87519 5.20862C8.78123 6.30259 8.16665 7.78632 8.16665 9.33341C8.16665 13.1457 7.20175 15.8295 6.06514 17.6561C5.81682 18.0552 5.60957 18.3883 5.44024 18.6654C5.68125 18.6667 5.96162 18.6667 6.28698 18.6667H21.713C22.0383 18.6667 22.3187 18.6667 22.5597 18.6654C22.3904 18.3883 22.1831 18.0552 21.9348 17.6561C20.7982 15.8295 19.8333 13.1457 19.8333 9.33341C19.8333 7.78632 19.2187 6.30259 18.1248 5.20862C17.0308 4.11466 15.5471 3.50008 14 3.50008ZM10.5 24.5001C10.5 23.8557 11.0223 23.3334 11.6666 23.3334H16.3333C16.9776 23.3334 17.5 23.8557 17.5 24.5001C17.5 25.1444 16.9776 25.6667 16.3333 25.6667H11.6666C11.0223 25.6667 10.5 25.1444 10.5 24.5001Z" fill="#59626B"/>
</svg>
