<svg width="34" height="44" viewBox="0 0 34 44" fill="none" xmlns="http://www.w3.org/2000/svg">
<path fill-rule="evenodd" clip-rule="evenodd" d="M28.9328 42.3258C30.8434 44.1425 34 42.7881 34 40.1517V3.90843C34 1.27672 30.7989 -0.145125 28.8793 1.78498C24.6283 6.05921 13.5651 17.1685 8.60248 22.016C7.81232 22.7879 7.79746 24.0541 8.56929 24.8443C9.34112 25.6344 10.6074 25.6493 11.3975 24.8774C15.8122 20.5652 25.0038 11.349 30 6.32972V37.821L25.6781 33.7116C24.8777 32.9505 23.6117 32.9824 22.8506 33.7829C22.0895 34.5834 22.1214 35.8493 22.9219 36.6104L28.9328 42.3258ZM4.89064 6.2528C2.92984 4.66124 0 6.05666 0 8.58207V39.3162C0 41.8753 2.99827 43.2595 4.94596 41.5995L25.2973 24.2546C26.138 23.5381 26.2387 22.2758 25.5222 21.4351C24.8057 20.5944 23.5434 20.4938 22.7027 21.2103L4 37.15V10.6817L8.43957 14.2853C9.29719 14.9814 10.5567 14.8505 11.2528 13.9928C11.949 13.1352 11.818 11.8757 10.9604 11.1796L4.89064 6.2528Z" fill="url(#paint0_linear_8278_7955)"/>
<defs>
<linearGradient id="paint0_linear_8278_7955" x1="39.3125" y1="-6.1845" x2="0.0480265" y2="54.8164" gradientUnits="userSpaceOnUse">
<stop stop-color="#0500FF"/>
<stop offset="1" stop-color="#2AFFE5"/>
</linearGradient>
</defs>
</svg>
