<svg width="28" height="28" viewBox="0 0 28 28" fill="none" xmlns="http://www.w3.org/2000/svg">
<path fill-rule="evenodd" clip-rule="evenodd" d="M9.05174 2.3335H18.9481C19.8872 2.33348 20.6623 2.33347 21.2937 2.38506C21.9495 2.43864 22.5523 2.55363 23.1185 2.84213C23.9966 3.28954 24.7105 4.00345 25.1579 4.88154C25.4465 5.44777 25.5614 6.05059 25.615 6.70637C25.6666 7.33775 25.6666 8.11283 25.6666 9.05195V18.9484C25.6666 19.8875 25.6666 20.6626 25.615 21.294C25.5614 21.9497 25.4465 22.5526 25.1579 23.1188C24.7105 23.9969 23.9966 24.7108 23.1185 25.1582C22.5523 25.4467 21.9495 25.5617 21.2937 25.6153C20.6623 25.6669 19.8872 25.6668 18.9481 25.6668H9.05171C8.11259 25.6668 7.33751 25.6669 6.70612 25.6153C6.05034 25.5617 5.44752 25.4467 4.8813 25.1582C4.00321 24.7108 3.2893 23.9969 2.84189 23.1188C2.55338 22.5526 2.43839 21.9497 2.38481 21.294C2.33323 20.6626 2.33324 19.8875 2.33325 18.9483V9.05198C2.33324 8.11285 2.33323 7.33776 2.38481 6.70637C2.43839 6.05059 2.55338 5.44777 2.84189 4.88154C3.2893 4.00345 4.00321 3.28954 4.8813 2.84213C5.44752 2.55363 6.05034 2.43864 6.70612 2.38506C7.33752 2.33347 8.11261 2.33348 9.05174 2.3335ZM6.89613 4.71064C6.38465 4.75243 6.12307 4.82818 5.94061 4.92115C5.50156 5.14485 5.14461 5.50181 4.9209 5.94085C4.82793 6.12332 4.75219 6.38489 4.7104 6.89637C4.66749 7.42148 4.66659 8.10082 4.66659 9.10016V18.9002C4.66659 19.8995 4.66749 20.5788 4.7104 21.104C4.75219 21.6154 4.82793 21.877 4.9209 22.0595C5.14461 22.4985 5.50156 22.8555 5.94061 23.0792C6.12307 23.1721 6.38465 23.2479 6.89613 23.2897C7.42123 23.3326 8.10058 23.3335 9.09992 23.3335H18.8999C19.8993 23.3335 20.5786 23.3326 21.1037 23.2897C21.6152 23.2479 21.8768 23.1721 22.0592 23.0792C22.4983 22.8555 22.8552 22.4985 23.0789 22.0595C23.1719 21.877 23.2477 21.6154 23.2894 21.104C23.3323 20.5788 23.3333 19.8995 23.3333 18.9002V9.10016C23.3333 8.10082 23.3323 7.42148 23.2894 6.89637C23.2477 6.38489 23.1719 6.12332 23.0789 5.94085C22.8552 5.50181 22.4983 5.14485 22.0592 4.92115C21.8768 4.82818 21.6152 4.75243 21.1037 4.71064C20.5786 4.66774 19.8993 4.66683 18.8999 4.66683H9.09992C8.10058 4.66683 7.42123 4.66774 6.89613 4.71064ZM9.91659 6.41683C10.5609 6.41683 11.0833 6.93917 11.0833 7.5835V8.75016H12.2499C12.8943 8.75016 13.4166 9.2725 13.4166 9.91683C13.4166 10.5612 12.8943 11.0835 12.2499 11.0835H11.0833V12.2502C11.0833 12.8945 10.5609 13.4168 9.91659 13.4168C9.27225 13.4168 8.74992 12.8945 8.74992 12.2502V11.0835H7.58325C6.93892 11.0835 6.41659 10.5612 6.41659 9.91683C6.41659 9.2725 6.93892 8.75016 7.58325 8.75016H8.74992V7.5835C8.74992 6.93917 9.27225 6.41683 9.91659 6.41683ZM19.5916 6.75854C20.0472 6.30293 20.7859 6.30293 21.2415 6.75854C21.6972 7.21415 21.6972 7.95284 21.2415 8.40845L8.40821 21.2418C7.9526 21.6974 7.21391 21.6974 6.7583 21.2418C6.30268 20.7862 6.30268 20.0475 6.7583 19.5919L19.5916 6.75854ZM14.5833 18.0835C14.5833 17.4392 15.1056 16.9168 15.7499 16.9168H20.4166C21.0609 16.9168 21.5833 17.4392 21.5833 18.0835C21.5833 18.7278 21.0609 19.2502 20.4166 19.2502H15.7499C15.1056 19.2502 14.5833 18.7278 14.5833 18.0835Z" fill="#007AFF"/>
</svg>
