<svg width="26" height="26" viewBox="0 0 26 26" fill="none" xmlns="http://www.w3.org/2000/svg">
<circle cx="13" cy="13" r="13" fill="url(#paint0_linear_8401_3452)"/>
<g clip-path="url(#clip0_8401_3452)">
<path d="M12.8263 17.549L9.43747 19.6866C9.28776 19.7863 9.13124 19.8291 8.96793 19.8148C8.80461 19.8006 8.6617 19.7436 8.53921 19.6438C8.41672 19.5441 8.32146 19.4195 8.25341 19.2702C8.18536 19.1208 8.17175 18.9532 8.21258 18.7674L9.11083 14.7275L6.10985 12.0129C5.97375 11.8846 5.88882 11.7384 5.85507 11.5743C5.82132 11.4101 5.83139 11.2499 5.88528 11.0937C5.93918 10.9376 6.02084 10.8093 6.13026 10.709C6.23968 10.6087 6.38939 10.5445 6.57939 10.5166L10.5399 10.1532L12.071 6.34845C12.139 6.17745 12.2446 6.0492 12.3878 5.9637C12.531 5.8782 12.6772 5.83545 12.8263 5.83545C12.9755 5.83545 13.1217 5.8782 13.2648 5.9637C13.408 6.0492 13.5136 6.17745 13.5817 6.34845L15.1128 10.1532L19.0733 10.5166C19.2638 10.5451 19.4135 10.6092 19.5224 10.709C19.6313 10.8087 19.7129 10.937 19.7674 11.0937C19.8218 11.2505 19.8322 11.4109 19.7984 11.5751C19.7647 11.7393 19.6795 11.8852 19.5428 12.0129L16.5418 14.7275L17.4401 18.7674C17.4809 18.9527 17.4673 19.1203 17.3993 19.2702C17.3312 19.4201 17.2359 19.5446 17.1135 19.6438C16.991 19.743 16.8481 19.8 16.6847 19.8148C16.5214 19.8296 16.3649 19.7869 16.2152 19.6866L12.8263 17.549Z" fill="white"/>
</g>
<circle cx="12.9999" cy="13.0001" r="11.0758" stroke="white" stroke-width="0.381818"/>
<defs>
<linearGradient id="paint0_linear_8401_3452" x1="15.3111" y1="26.8667" x2="23.4" y2="3.17778" gradientUnits="userSpaceOnUse">
<stop stop-color="#F5C700"/>
<stop offset="1" stop-color="#FF9500"/>
</linearGradient>
<clipPath id="clip0_8401_3452">
<rect width="15.6" height="15.6" fill="white" transform="translate(5.19995 5.19995)"/>
</clipPath>
</defs>
</svg>
