<svg width="20" height="20" viewBox="0 0 20 20" fill="none" xmlns="http://www.w3.org/2000/svg">
<g clip-path="url(#clip0_8146_17577)">
<path d="M9.99982 3L9.79988 3.06778L1.81521 6.05593L-0.000183105 6.72448L1.05699 7.10263V13.3458C0.675639 13.5934 0.418214 14.045 0.418214 14.573C0.418214 14.9515 0.552812 15.3144 0.792398 15.582C1.03198 15.8497 1.35693 16 1.69576 16C2.03459 16 2.35954 15.8497 2.59912 15.582C2.83871 15.3144 2.97331 14.9515 2.97331 14.573C2.97331 14.045 2.71588 13.5934 2.33453 13.3458V7.59495L3.61208 8.06229V11.719C3.61208 12.3041 3.93147 12.7892 4.3109 13.1246C4.69033 13.4578 5.16175 13.6932 5.7277 13.9044C6.86088 14.3254 8.35434 14.573 9.99982 14.573C11.6453 14.573 13.1387 14.3261 14.2719 13.9037C14.8379 13.6932 15.3093 13.4578 15.6887 13.1239C16.0682 12.7892 16.3876 12.3041 16.3876 11.719V8.06229L18.1844 7.39303L19.9998 6.72448L18.1838 6.05521L10.1991 3.06778L9.99982 3ZM9.99982 4.49479L15.9883 6.72448L9.99982 8.95417L4.01131 6.72448L9.99982 4.49479ZM4.88963 8.55318L9.80052 10.3812L9.99982 10.4482L10.1998 10.3805L15.11 8.55247V11.719C15.11 11.7261 15.1126 11.8089 14.9101 11.9866C14.7082 12.1649 14.346 12.3897 13.8721 12.5666C12.9254 12.9184 11.5297 13.146 9.99982 13.146C8.46995 13.146 7.07423 12.9191 6.12693 12.5659C5.65424 12.3897 5.29142 12.1642 5.08956 11.9866C4.88643 11.8082 4.88963 11.7261 4.88963 11.719V8.55318Z" fill="#59626B"/>
</g>
<defs>
<clipPath id="clip0_8146_17577">
<rect width="20" height="20" fill="white"/>
</clipPath>
</defs>
</svg>
