<svg width="21" height="20" viewBox="0 0 21 20" fill="none" xmlns="http://www.w3.org/2000/svg">
<path fill-rule="evenodd" clip-rule="evenodd" d="M15.3274 1.49402C16.3432 0.478229 17.9901 0.478231 19.0059 1.49402C20.0217 2.50982 20.0217 4.15674 19.0059 5.17254L11.037 13.1415C11.0205 13.158 11.0041 13.1744 10.9879 13.1906C10.7484 13.4306 10.5372 13.6422 10.2825 13.7982C10.0589 13.9353 9.815 14.0363 9.55991 14.0975C9.26953 14.1672 8.97057 14.167 8.63149 14.1667C8.60854 14.1666 8.58541 14.1666 8.56208 14.1666H7.16663C6.70639 14.1666 6.33329 13.7935 6.33329 13.3333V11.9379C6.33329 11.9145 6.33327 11.8914 6.33325 11.8684C6.33293 11.5294 6.33265 11.2304 6.40237 10.94C6.46361 10.6849 6.56462 10.4411 6.70169 10.2174C6.85772 9.96277 7.06932 9.75157 7.3093 9.51203C7.32555 9.49582 7.34192 9.47947 7.35842 9.46297L15.3274 1.49402ZM17.8274 2.67253C17.4625 2.30761 16.8708 2.30761 16.5059 2.67253L8.53693 10.6415C8.22063 10.9578 8.16231 11.0237 8.12276 11.0882C8.07707 11.1628 8.0434 11.2441 8.02298 11.3291C8.00531 11.4027 7.99996 11.4905 7.99996 11.9379V12.4999H8.56208C9.00939 12.4999 9.09723 12.4946 9.17083 12.4769C9.25586 12.4565 9.33715 12.4228 9.41171 12.3771C9.47624 12.3376 9.54214 12.2793 9.85844 11.963L17.8274 3.99402C18.1923 3.6291 18.1923 3.03745 17.8274 2.67253ZM6.13223 2.49995L9.66665 2.49995C10.1269 2.49995 10.5 2.87304 10.5 3.33328C10.5 3.79352 10.1269 4.16661 9.66665 4.16661H6.16665C5.45283 4.16661 4.96759 4.16726 4.59251 4.19791C4.22717 4.22776 4.04033 4.28186 3.91 4.34827C3.59639 4.50806 3.34143 4.76302 3.18164 5.07663C3.11523 5.20696 3.06112 5.3938 3.03127 5.75914C3.00063 6.13422 2.99998 6.61946 2.99998 7.33328V14.3333C2.99998 15.0471 3.00063 15.5323 3.03127 15.9074C3.06112 16.2728 3.11523 16.4596 3.18164 16.5899C3.34142 16.9035 3.59639 17.1585 3.91 17.3183C4.04033 17.3847 4.22717 17.4388 4.59251 17.4687C4.96759 17.4993 5.45283 17.4999 6.16665 17.4999H13.1666C13.8805 17.4999 14.3657 17.4993 14.7408 17.4687C15.1061 17.4388 15.293 17.3847 15.4233 17.3183C15.7369 17.1585 15.9919 16.9035 16.1517 16.5899C16.2181 16.4596 16.2722 16.2728 16.302 15.9074C16.3327 15.5323 16.3333 15.0471 16.3333 14.3333V10.8333C16.3333 10.373 16.7064 9.99995 17.1666 9.99995C17.6269 9.99995 18 10.373 18 10.8333V14.3677C18 15.0385 18 15.5921 17.9632 16.0431C17.9249 16.5115 17.8427 16.9421 17.6367 17.3466C17.3171 17.9738 16.8072 18.4837 16.1799 18.8033C15.7755 19.0094 15.3449 19.0915 14.8765 19.1298C14.4255 19.1666 13.8719 19.1666 13.2011 19.1666H6.13221C5.46141 19.1666 4.90778 19.1666 4.45679 19.1298C3.98838 19.0915 3.55779 19.0094 3.15335 18.8033C2.52614 18.4837 2.0162 17.9738 1.69663 17.3466C1.49055 16.9421 1.40841 16.5115 1.37014 16.0431C1.33329 15.5921 1.3333 15.0385 1.33331 14.3677V7.29886C1.3333 6.62805 1.33329 6.07442 1.37014 5.62342C1.40841 5.15501 1.49055 4.72442 1.69663 4.31998C2.0162 3.69277 2.52614 3.18284 3.15335 2.86326C3.55779 2.65718 3.98838 2.57504 4.45679 2.53677C4.90779 2.49993 5.46142 2.49993 6.13223 2.49995Z" fill="#59626B"/>
</svg>
