<svg width="20" height="20" viewBox="0 0 20 20" fill="none" xmlns="http://www.w3.org/2000/svg">
<path fill-rule="evenodd" clip-rule="evenodd" d="M11.8012 1.66675H14.8654C15.3047 1.66673 15.6837 1.66672 15.9958 1.69222C16.3253 1.71914 16.653 1.77857 16.9683 1.93923C17.4387 2.17892 17.8211 2.56137 18.0608 3.03177C18.2215 3.34709 18.2809 3.67477 18.3078 4.00423C18.3333 4.31637 18.3333 4.69533 18.3333 5.13461V16.6667C18.7935 16.6667 19.1666 17.0398 19.1666 17.5001C19.1666 17.9603 18.7935 18.3334 18.3333 18.3334H1.66665C1.20641 18.3334 0.833313 17.9603 0.833313 17.5001C0.833313 17.0398 1.20641 16.6667 1.66665 16.6667V11.8013C1.66663 11.362 1.66662 10.983 1.69212 10.6709C1.71904 10.3414 1.77847 10.0138 1.93913 9.69844C2.17881 9.22803 2.56126 8.84558 3.03167 8.6059C3.34699 8.44524 3.67467 8.38581 4.00412 8.35889C4.31627 8.33339 4.69524 8.3334 5.13453 8.33342L8.33331 8.33342L8.33331 5.13463C8.3333 4.69534 8.33328 4.31637 8.35879 4.00423C8.3857 3.67477 8.44513 3.34709 8.6058 3.03177C8.84548 2.56137 9.22793 2.17892 9.69834 1.93923C10.0137 1.77857 10.3413 1.71914 10.6708 1.69222C10.9829 1.66672 11.3619 1.66673 11.8012 1.66675ZM8.33331 10.0001H5.16665C4.68618 10.0001 4.37596 10.0007 4.13984 10.02C3.91346 10.0385 3.82952 10.0699 3.78832 10.0909C3.63152 10.1708 3.50403 10.2983 3.42414 10.4551C3.40315 10.4963 3.37175 10.5802 3.35325 10.8066C3.33396 11.0427 3.33331 11.353 3.33331 11.8334V16.6667H8.33331V10.0001ZM9.99998 16.6667V5.16675C9.99998 4.68629 10.0006 4.37606 10.0199 4.13995C10.0384 3.91356 10.0698 3.82963 10.0908 3.78842C10.1707 3.63162 10.2982 3.50414 10.455 3.42424C10.4962 3.40325 10.5801 3.37185 10.8065 3.35336C11.0426 3.33406 11.3529 3.33342 11.8333 3.33342H14.8333C15.3138 3.33342 15.624 3.33406 15.8601 3.35336C16.0865 3.37185 16.1704 3.40325 16.2116 3.42424C16.3684 3.50414 16.4959 3.63162 16.5758 3.78842C16.5968 3.82963 16.6282 3.91356 16.6467 4.13995C16.666 4.37606 16.6666 4.68629 16.6666 5.16675V16.6667H9.99998ZM11.25 5.83342C11.25 5.37318 11.6231 5.00008 12.0833 5.00008H14.5833C15.0435 5.00008 15.4166 5.37318 15.4166 5.83342C15.4166 6.29365 15.0435 6.66675 14.5833 6.66675H12.0833C11.6231 6.66675 11.25 6.29365 11.25 5.83342ZM11.25 9.16675C11.25 8.70651 11.6231 8.33342 12.0833 8.33342H14.5833C15.0435 8.33342 15.4166 8.70651 15.4166 9.16675C15.4166 9.62699 15.0435 10.0001 14.5833 10.0001H12.0833C11.6231 10.0001 11.25 9.62699 11.25 9.16675ZM11.25 12.5001C11.25 12.0398 11.6231 11.6667 12.0833 11.6667H14.5833C15.0435 11.6667 15.4166 12.0398 15.4166 12.5001C15.4166 12.9603 15.0435 13.3334 14.5833 13.3334H12.0833C11.6231 13.3334 11.25 12.9603 11.25 12.5001Z" fill="#59626B"/>
</svg>
