<svg width="20" height="20" viewBox="0 0 20 20" fill="none" xmlns="http://www.w3.org/2000/svg">
<path fill-rule="evenodd" clip-rule="evenodd" d="M5.63226 2.5H14.3678C15.0386 2.49999 15.5922 2.49998 16.0432 2.53683C16.5116 2.5751 16.9422 2.65724 17.3466 2.86331C17.9738 3.18289 18.4838 3.69283 18.8034 4.32003C19.0022 4.71033 19.0857 5.12497 19.1257 5.57446C19.1703 5.71082 19.178 5.85438 19.1516 5.99132C19.1667 6.36642 19.1667 6.80029 19.1667 7.2989V12.7011C19.1667 13.3719 19.1667 13.9255 19.1298 14.3765C19.0916 14.8449 19.0094 15.2755 18.8034 15.68C18.4838 16.3072 17.9738 16.8171 17.3466 17.1367C16.9422 17.3428 16.5116 17.4249 16.0432 17.4632C15.5922 17.5 15.0386 17.5 14.3678 17.5H5.63224C4.96144 17.5 4.40781 17.5 3.95682 17.4632C3.4884 17.4249 3.05782 17.3428 2.65337 17.1367C2.02617 16.8171 1.51623 16.3072 1.19665 15.68C0.990576 15.2755 0.90844 14.8449 0.870169 14.3765C0.833321 13.9255 0.833329 13.3719 0.83334 12.7011V7.29892C0.833332 6.80031 0.833325 6.36643 0.848455 5.99133C0.822006 5.85439 0.829714 5.71081 0.87435 5.57445C0.914339 5.12497 0.997787 4.71033 1.19665 4.32003C1.51623 3.69283 2.02617 3.18289 2.65337 2.86331C3.05782 2.65724 3.4884 2.5751 3.95682 2.53683C4.40781 2.49998 4.96145 2.49999 5.63226 2.5ZM2.50001 7.39043V12.6667C2.50001 13.3805 2.50066 13.8657 2.5313 14.2408C2.56115 14.6061 2.61525 14.793 2.68166 14.9233C2.84145 15.2369 3.09642 15.4919 3.41002 15.6517C3.54036 15.7181 3.72719 15.7722 4.09254 15.802C4.46761 15.8327 4.95286 15.8333 5.66667 15.8333H14.3333C15.0472 15.8333 15.5324 15.8327 15.9075 15.802C16.2728 15.7722 16.4597 15.7181 16.59 15.6517C16.9036 15.4919 17.1586 15.2369 17.3184 14.9233C17.3848 14.793 17.4389 14.6061 17.4687 14.2408C17.4994 13.8657 17.5 13.3805 17.5 12.6667V7.39043L14.4674 9.41218C14.4532 9.42163 14.4391 9.43103 14.4252 9.44034C14.217 9.57932 14.0333 9.70196 13.8289 9.7912C13.6491 9.86971 13.4606 9.92677 13.2674 9.96121C13.0478 10.0004 12.827 10.0002 12.5767 10C12.5599 10 12.543 10 12.5259 10H7.47408C7.45703 10 7.44012 10 7.42334 10C7.17305 10.0002 6.95219 10.0004 6.73258 9.96121C6.5394 9.92677 6.35094 9.86971 6.1711 9.7912C5.96666 9.70196 5.78298 9.57932 5.57482 9.44033C5.56087 9.43102 5.54681 9.42163 5.53263 9.41218L2.50001 7.39043ZM17.4288 5.43484L13.5429 8.02543C13.2693 8.2078 13.2141 8.24103 13.1621 8.26373C13.1022 8.2899 13.0393 8.30892 12.975 8.3204C12.9191 8.33036 12.8547 8.33333 12.5259 8.33333H7.47408C7.14528 8.33333 7.08093 8.33036 7.02506 8.3204C6.96067 8.30892 6.89785 8.2899 6.8379 8.26373C6.7859 8.24103 6.7307 8.20781 6.45713 8.02543L2.57124 5.43484C2.6007 5.2695 2.63859 5.16121 2.68166 5.07668C2.84145 4.76308 3.09642 4.50811 3.41002 4.34832C3.54036 4.28192 3.72719 4.22781 4.09254 4.19796C4.46761 4.16732 4.95286 4.16667 5.66667 4.16667H14.3333C15.0472 4.16667 15.5324 4.16732 15.9075 4.19796C16.2728 4.22781 16.4597 4.28192 16.59 4.34832C16.9036 4.50811 17.1586 4.76308 17.3184 5.07668C17.3614 5.16121 17.3993 5.2695 17.4288 5.43484Z" fill="#59626B"/>
</svg>
