<svg width="32" height="32" viewBox="0 0 32 32" fill="none" xmlns="http://www.w3.org/2000/svg">
<path d="M14.8572 9.14275C14.8572 5.98684 12.2988 3.42847 9.14287 3.42847C5.98696 3.42847 3.42859 5.98684 3.42859 9.14275C3.42859 12.2987 5.98696 14.857 9.14287 14.857C12.2988 14.857 14.8572 12.2987 14.8572 9.14275ZM12.7143 9.14275C12.7143 11.1152 11.1153 12.7142 9.14287 12.7142C7.17043 12.7142 5.57145 11.1152 5.57145 9.14275C5.57145 7.17031 7.17043 5.57132 9.14287 5.57132C11.1153 5.57132 12.7143 7.17031 12.7143 9.14275ZM28.5714 9.14275C28.5714 5.98684 26.0131 3.42847 22.8572 3.42847C19.7012 3.42847 17.1429 5.98684 17.1429 9.14275C17.1429 12.2987 19.7012 14.857 22.8572 14.857C26.0131 14.857 28.5714 12.2987 28.5714 9.14275ZM26.4286 9.14275C26.4286 11.1152 24.8296 12.7142 22.8572 12.7142C20.8847 12.7142 19.2857 11.1152 19.2857 9.14275C19.2857 7.17031 20.8847 5.57132 22.8572 5.57132C24.8296 5.57132 26.4286 7.17031 26.4286 9.14275ZM9.14287 28.5713C5.98696 28.5713 3.42859 26.0129 3.42859 22.857C3.42859 19.7011 5.98696 17.1428 9.14287 17.1428C12.2988 17.1428 14.8572 19.7011 14.8572 22.857C14.8572 26.0129 12.2988 28.5713 9.14287 28.5713ZM9.14287 26.4285C11.1153 26.4285 12.7143 24.8295 12.7143 22.857C12.7143 20.8846 11.1153 19.2856 9.14287 19.2856C7.17043 19.2856 5.57145 20.8846 5.57145 22.857C5.57145 24.8295 7.17043 26.4285 9.14287 26.4285ZM28.5714 22.857C28.5714 19.7011 26.0131 17.1428 22.8572 17.1428C19.7012 17.1428 17.1429 19.7011 17.1429 22.857C17.1429 26.0129 19.7012 28.5713 22.8572 28.5713C26.0131 28.5713 28.5714 26.0129 28.5714 22.857ZM26.4286 22.857C26.4286 24.8295 24.8296 26.4285 22.8572 26.4285C20.8847 26.4285 19.2857 24.8295 19.2857 22.857C19.2857 20.8846 20.8847 19.2856 22.8572 19.2856C24.8296 19.2856 26.4286 20.8846 26.4286 22.857Z" fill="#007AFF"/>
</svg>
