<svg width="22" height="22" viewBox="0 0 22 22" fill="none" xmlns="http://www.w3.org/2000/svg">
<path fill-rule="evenodd" clip-rule="evenodd" d="M7.81253 0.916679L7.76574 0.916595C7.59166 0.91613 7.37245 0.915544 7.15673 0.967334C6.96966 1.01224 6.79083 1.08632 6.62679 1.18684C6.43764 1.30275 6.28305 1.45817 6.16028 1.5816L6.12725 1.61474L1.61474 6.12725L1.5816 6.16028C1.45817 6.28305 1.30276 6.43764 1.18684 6.62679C1.08632 6.79083 1.01224 6.96966 0.967334 7.15673C0.915544 7.37245 0.91613 7.59166 0.916595 7.76574L0.916679 7.81253V14.1875L0.916595 14.2343C0.91613 14.4084 0.915544 14.6276 0.967334 14.8433C1.01224 15.0304 1.08632 15.2092 1.18684 15.3732C1.30276 15.5624 1.45818 15.717 1.5816 15.8398L1.61474 15.8728L6.12725 20.3853L6.16029 20.4184C6.28305 20.5419 6.43764 20.6973 6.62679 20.8132C6.79083 20.9137 6.96966 20.9878 7.15673 21.0327C7.37245 21.0845 7.59166 21.0839 7.76575 21.0834L7.81253 21.0833H14.1875L14.2343 21.0834C14.4084 21.0839 14.6276 21.0845 14.8433 21.0327C15.0304 20.9878 15.2092 20.9137 15.3732 20.8132C15.5624 20.6973 15.717 20.5418 15.8398 20.4184L15.8728 20.3853L20.3853 15.8728L20.4184 15.8398C20.5418 15.717 20.6973 15.5624 20.8132 15.3732C20.9137 15.2092 20.9878 15.0304 21.0327 14.8433C21.0845 14.6276 21.0839 14.4084 21.0834 14.2343L21.0833 14.1875V7.81253L21.0834 7.76575C21.0839 7.59166 21.0845 7.37245 21.0327 7.15673C20.9878 6.96966 20.9137 6.79083 20.8132 6.62679C20.6973 6.43764 20.5419 6.28305 20.4184 6.16029L20.3853 6.12725L15.8728 1.61474L15.8397 1.5816C15.717 1.45817 15.5624 1.30276 15.3732 1.18684C15.2092 1.08632 15.0304 1.01224 14.8433 0.967334C14.6276 0.915544 14.4084 0.91613 14.2343 0.916595L14.1875 0.916679H7.81253ZM11 6.41673C10.4937 6.41673 10.0833 6.82713 10.0833 7.33339C10.0833 7.83966 10.4937 8.25006 11 8.25006H11.0092C11.5154 8.25006 11.9258 7.83966 11.9258 7.33339C11.9258 6.82713 11.5154 6.41673 11.0092 6.41673H11ZM11.9167 11.0001C11.9167 10.4938 11.5063 10.0834 11 10.0834C10.4937 10.0834 10.0833 10.4938 10.0833 11.0001V14.6667C10.0833 15.173 10.4937 15.5834 11 15.5834C11.5063 15.5834 11.9167 15.173 11.9167 14.6667V11.0001Z" fill="#FF9500"/>
</svg>
