<svg width="19" height="20" viewBox="0 0 19 20" fill="none" xmlns="http://www.w3.org/2000/svg">
<path fill-rule="evenodd" clip-rule="evenodd" d="M4.75 6.8335C4.75 4.21014 6.87665 2.0835 9.5 2.0835C12.1234 2.0835 14.25 4.21014 14.25 6.8335V7.74417C14.4737 7.7932 14.6885 7.86458 14.896 7.97031C15.4918 8.27391 15.9763 8.75835 16.2799 9.35419C16.4756 9.73842 16.5537 10.1475 16.59 10.5925C16.625 11.0209 16.625 11.5469 16.625 12.1841V13.3579C16.625 13.9951 16.625 14.5211 16.59 14.9495C16.5537 15.3945 16.4756 15.8036 16.2799 16.1878C15.9763 16.7836 15.4918 17.2681 14.896 17.5717C14.5117 17.7675 14.1027 17.8455 13.6577 17.8818C13.2293 17.9168 12.7033 17.9168 12.066 17.9168H6.93395C6.29669 17.9168 5.77075 17.9168 5.3423 17.8818C4.89731 17.8455 4.48825 17.7675 4.10403 17.5717C3.50818 17.2681 3.02375 16.7836 2.72015 16.1878C2.52437 15.8036 2.44634 15.3945 2.40999 14.9495C2.37498 14.5211 2.37499 13.9951 2.375 13.3579V12.1841C2.37499 11.5469 2.37498 11.0209 2.40999 10.5925C2.44634 10.1475 2.52437 9.73842 2.72015 9.35419C3.02375 8.75835 3.50818 8.27391 4.10403 7.97031C4.31153 7.86458 4.52627 7.7932 4.75 7.74417V6.8335ZM6.33333 7.62645C6.52152 7.62516 6.72156 7.62516 6.93397 7.62516H12.066C12.2784 7.62516 12.4785 7.62516 12.6667 7.62645V6.8335C12.6667 5.08459 11.2489 3.66683 9.5 3.66683C7.7511 3.66683 6.33333 5.08459 6.33333 6.8335V7.62645ZM5.47124 9.23822C5.12416 9.26658 4.94667 9.31798 4.82285 9.38107C4.52493 9.53287 4.28271 9.77509 4.13091 10.073C4.06782 10.1968 4.01642 10.3743 3.98806 10.7214C3.95895 11.0777 3.95833 11.5387 3.95833 12.2168V13.3252C3.95833 14.0033 3.95895 14.4643 3.98806 14.8206C4.01642 15.1677 4.06782 15.3452 4.13091 15.469C4.28271 15.7669 4.52493 16.0091 4.82285 16.1609C4.94667 16.224 5.12416 16.2754 5.47124 16.3038C5.82756 16.3329 6.28854 16.3335 6.96667 16.3335H12.0333C12.7115 16.3335 13.1724 16.3329 13.5288 16.3038C13.8758 16.2754 14.0533 16.224 14.1772 16.1609C14.4751 16.0091 14.7173 15.7669 14.8691 15.469C14.9322 15.3452 14.9836 15.1677 15.0119 14.8206C15.0411 14.4643 15.0417 14.0033 15.0417 13.3252V12.2168C15.0417 11.5387 15.0411 11.0777 15.0119 10.7214C14.9836 10.3743 14.9322 10.1968 14.8691 10.073C14.7173 9.77509 14.4751 9.53287 14.1772 9.38107C14.0533 9.31798 13.8758 9.26658 13.5288 9.23822C13.1724 9.20911 12.7115 9.2085 12.0333 9.2085H6.96667C6.28854 9.2085 5.82756 9.20911 5.47124 9.23822ZM9.5 11.1877C9.93723 11.1877 10.2917 11.5421 10.2917 11.9793V13.5627C10.2917 13.9999 9.93723 14.3543 9.5 14.3543C9.06278 14.3543 8.70833 13.9999 8.70833 13.5627V11.9793C8.70833 11.5421 9.06278 11.1877 9.5 11.1877Z" fill="#59626B"/>
</svg>
