<svg width="28" height="28" viewBox="0 0 28 28" fill="none" xmlns="http://www.w3.org/2000/svg">
<path fill-rule="evenodd" clip-rule="evenodd" d="M7.88558 3.5H20.1153C21.0544 3.49999 21.8295 3.49997 22.4609 3.55156C23.1167 3.60514 23.7195 3.72013 24.2857 4.00864C25.1638 4.45605 25.8777 5.16996 26.3251 6.04805C26.6035 6.59445 26.7204 7.17493 26.7763 7.80419C26.8387 7.99482 26.8496 8.19589 26.8126 8.38786C26.8338 8.913 26.8338 9.52041 26.8338 10.2185V17.7815C26.8338 18.7207 26.8338 19.4957 26.7822 20.1271C26.7286 20.7829 26.6136 21.3857 26.3251 21.952C25.8777 22.83 25.1638 23.544 24.2857 23.9914C23.7195 24.2799 23.1167 24.3949 22.4609 24.4484C21.8295 24.5 21.0544 24.5 20.1153 24.5H7.88555C6.94643 24.5 6.17135 24.5 5.53996 24.4484C4.88418 24.3949 4.28136 24.2799 3.71514 23.9914C2.83705 23.544 2.12314 22.83 1.67573 21.952C1.38722 21.3857 1.27223 20.7829 1.21865 20.1271C1.16706 19.4957 1.16708 18.7206 1.16709 17.7815V10.2185C1.16708 9.52043 1.16707 8.91301 1.18825 8.38786C1.1512 8.19589 1.16214 7.99481 1.22451 7.80418C1.2805 7.17492 1.39732 6.59444 1.67573 6.04805C2.12314 5.16996 2.83705 4.45605 3.71514 4.00864C4.28136 3.72013 4.88418 3.60514 5.53996 3.55156C6.17136 3.49997 6.94644 3.49999 7.88558 3.5ZM3.50043 10.4074V17.7333C3.50043 18.7327 3.50133 19.412 3.54424 19.9371C3.58603 20.4486 3.66177 20.7102 3.75474 20.8926C3.97845 21.3317 4.3354 21.6886 4.77445 21.9124C4.95691 22.0053 5.21849 22.0811 5.72997 22.1229C6.25507 22.1658 6.93442 22.1667 7.93376 22.1667H20.0671C21.0664 22.1667 21.7458 22.1658 22.2709 22.1229C22.7824 22.0811 23.0439 22.0053 23.2264 21.9124C23.6654 21.6886 24.0224 21.3317 24.2461 20.8926C24.3391 20.7102 24.4148 20.4486 24.4566 19.9371C24.4995 19.412 24.5004 18.7327 24.5004 17.7333V10.4074L16.8104 15.7905C16.7651 15.8221 16.7203 15.8536 16.6758 15.8848C16.0404 16.331 15.4824 16.7228 14.847 16.8812C14.2911 17.0198 13.7097 17.0198 13.1539 16.8812C12.5184 16.7228 11.9605 16.331 11.325 15.8849C11.2806 15.8536 11.2357 15.8221 11.1905 15.7905L3.50043 10.4074ZM24.4039 7.62683L15.4723 13.8789C14.6219 14.4742 14.4417 14.5775 14.2826 14.6172C14.0973 14.6634 13.9035 14.6634 13.7182 14.6172C13.5591 14.5775 13.379 14.4742 12.5285 13.8789L3.59699 7.62683C3.63867 7.38514 3.69289 7.22874 3.75474 7.10736C3.97845 6.66831 4.3354 6.31136 4.77445 6.08765C4.95691 5.99468 5.21848 5.91893 5.72997 5.87714C6.25507 5.83424 6.93442 5.83333 7.93376 5.83333H20.0671C21.0664 5.83333 21.7458 5.83424 22.2709 5.87714C22.7824 5.91893 23.0439 5.99468 23.2264 6.08765C23.6654 6.31136 24.0224 6.66831 24.2461 7.10736C24.308 7.22874 24.3622 7.38514 24.4039 7.62683Z" fill="#59626B"/>
</svg>
