<svg width="28" height="28" viewBox="0 0 28 28" fill="none" xmlns="http://www.w3.org/2000/svg">
<path fill-rule="evenodd" clip-rule="evenodd" d="M11.0837 4.66634C8.82855 4.66634 7.00037 6.49451 7.00037 8.74967C7.00037 11.0048 8.82855 12.833 11.0837 12.833C13.3389 12.833 15.167 11.0048 15.167 8.74967C15.167 6.49451 13.3389 4.66634 11.0837 4.66634ZM4.66704 8.74967C4.66704 5.20585 7.53988 2.33301 11.0837 2.33301C14.6275 2.33301 17.5004 5.20585 17.5004 8.74967C17.5004 12.2935 14.6275 15.1663 11.0837 15.1663C7.53988 15.1663 4.66704 12.2935 4.66704 8.74967ZM17.6223 3.52619C17.909 2.94918 18.6092 2.71388 19.1862 3.00063C21.2962 4.0492 22.7504 6.22855 22.7504 8.74967C22.7504 11.2708 21.2962 13.4501 19.1862 14.4987C18.6092 14.7855 17.909 14.5502 17.6223 13.9732C17.3355 13.3961 17.5708 12.6959 18.1478 12.4092C19.4952 11.7396 20.417 10.3512 20.417 8.74967C20.417 7.14812 19.4952 5.75974 18.1478 5.09016C17.5708 4.80341 17.3355 4.1032 17.6223 3.52619ZM11.0837 19.833C8.12181 19.833 5.35249 21.3792 3.25109 24.0538C2.85301 24.5604 2.11958 24.6485 1.61293 24.2504C1.10627 23.8523 1.01825 23.1189 1.41633 22.6122C3.85674 19.5062 7.25369 17.4997 11.0837 17.4997C14.9137 17.4997 18.3107 19.5062 20.7511 22.6122C21.1492 23.1189 21.0611 23.8523 20.5545 24.2504C20.0478 24.6485 19.3144 24.5604 18.9163 24.0538C16.8149 21.3792 14.0456 19.833 11.0837 19.833ZM19.9375 19.0795C20.2031 18.4925 20.8943 18.2319 21.4813 18.4976C23.4389 19.3834 25.1701 20.8122 26.5844 22.6122C26.9825 23.1189 26.8945 23.8523 26.3878 24.2504C25.8812 24.6485 25.1477 24.5604 24.7497 24.0538C23.5332 22.5055 22.0886 21.3334 20.5194 20.6234C19.9324 20.3577 19.6718 19.6665 19.9375 19.0795Z" fill="#59626B"/>
</svg>
