<svg width="28" height="28" viewBox="0 0 28 28" fill="none" xmlns="http://www.w3.org/2000/svg">
<path fill-rule="evenodd" clip-rule="evenodd" d="M8.05553 4.2724C7.72445 4.10495 7.33346 4.10495 7.00238 4.2724C6.87788 4.33538 6.72266 4.46985 6.0378 5.15471L5.8539 5.33862C5.20031 5.99221 5.02414 6.18123 4.88331 6.43193C4.72008 6.72251 4.58332 7.24837 4.58431 7.58166C4.5852 7.87823 4.62898 8.05684 4.82178 8.73613C5.77332 12.0886 7.56836 15.2524 10.2101 17.8941C12.8518 20.5358 16.0155 22.3308 19.368 23.2824C20.0473 23.4752 20.2259 23.519 20.5225 23.5198C20.8558 23.5208 21.3816 23.3841 21.6722 23.2208C21.9229 23.08 22.1119 22.9038 22.7655 22.2503L22.9494 22.0664C23.6343 21.3815 23.7688 21.2263 23.8317 21.1018C23.9992 20.7707 23.9992 20.3797 23.8317 20.0486C23.7688 19.9241 23.6343 19.7689 22.9494 19.084L23.7744 18.2591L22.9494 19.084L22.7221 18.8567C22.2721 18.4067 22.1709 18.3146 22.0942 18.2647C21.7075 18.0133 21.209 18.0133 20.8223 18.2647C20.7457 18.3146 20.6445 18.4067 20.1945 18.8567C20.1856 18.8656 20.1765 18.8747 20.1672 18.8841C20.0625 18.9892 19.9299 19.1222 19.7708 19.2362L19.0915 18.2876L19.7708 19.2362C19.2026 19.643 18.4302 19.7747 17.7593 19.5791C17.5722 19.5246 17.4182 19.4503 17.2984 19.3926C17.2889 19.388 17.2797 19.3836 17.2706 19.3792C15.4623 18.511 13.7687 17.3279 12.2725 15.8317C10.7762 14.3355 9.59314 12.6418 8.72494 10.8335C8.72059 10.8245 8.71613 10.8152 8.71156 10.8058C8.6538 10.686 8.57956 10.5319 8.52502 10.3448L9.64507 10.0183L8.52502 10.3448C8.32946 9.67396 8.46117 8.90156 8.86799 8.33341L8.86799 8.3334C8.98197 8.17422 9.115 8.04168 9.22008 7.93699C9.22944 7.92766 9.23857 7.91855 9.24746 7.90967C9.69745 7.45968 9.78959 7.3585 9.83945 7.28181L9.83945 7.2818C10.0909 6.89512 10.0909 6.39661 9.83945 6.00993C9.78959 5.93324 9.69745 5.83206 9.24746 5.38206L9.02011 5.15471C8.33525 4.46985 8.18004 4.33538 8.05553 4.2724ZM5.94924 2.19026C6.94247 1.68788 8.11544 1.68788 9.10867 2.19026C9.61336 2.44553 10.0515 2.88479 10.5584 3.39294C10.5952 3.42988 10.6324 3.46718 10.67 3.5048L10.8974 3.73215C10.9222 3.75693 10.9467 3.78145 10.971 3.80572C11.3055 4.13959 11.5936 4.42719 11.7957 4.73805L10.8176 5.37399L11.7957 4.73805C12.5499 5.89811 12.5499 7.39362 11.7957 8.55368C11.5936 8.86454 11.3055 9.15214 10.971 9.48601C10.9467 9.51028 10.9222 9.5348 10.8974 9.55959C10.8302 9.6268 10.7959 9.66126 10.772 9.68653C10.7716 9.68843 10.7711 9.69053 10.7707 9.6928C10.7703 9.69533 10.77 9.69767 10.7698 9.69979C10.7736 9.70832 10.7788 9.7196 10.786 9.73484C10.7972 9.75867 10.8104 9.78613 10.8284 9.82363C11.5842 11.3978 12.6149 12.8743 13.9224 14.1818C15.2298 15.4892 16.7064 16.52 18.2805 17.2758L17.7756 18.3275L18.2805 17.2758C18.318 17.2938 18.3455 17.3069 18.3693 17.3182C18.3846 17.3253 18.3958 17.3305 18.4044 17.3344C18.4065 17.3342 18.4088 17.3338 18.4114 17.3334C18.4136 17.333 18.4157 17.3326 18.4176 17.3322C18.4429 17.3083 18.4774 17.274 18.5446 17.2068C18.5694 17.182 18.5939 17.1574 18.6182 17.1331C18.952 16.7987 19.2396 16.5106 19.5505 16.3085C20.7105 15.5542 22.206 15.5542 23.3661 16.3085C23.677 16.5106 23.9646 16.7987 24.2984 17.1331C24.3227 17.1574 24.3472 17.182 24.372 17.2068L23.5471 18.0317L24.372 17.2068L24.5994 17.4341C24.637 17.4717 24.6743 17.509 24.7112 17.5458C25.2194 18.0526 25.6586 18.4908 25.9139 18.9955C26.4163 19.9887 26.4163 21.1617 25.9139 22.1549C25.6586 22.6596 25.2194 23.0978 24.7112 23.6046C24.6743 23.6415 24.637 23.6787 24.5994 23.7163L24.4154 23.9002C24.3888 23.9268 24.3625 23.9532 24.3365 23.9792C23.7937 24.5226 23.3774 24.9392 22.815 25.2552C22.1734 25.6156 21.2515 25.8554 20.5156 25.8532C19.8717 25.8512 19.4021 25.7178 18.7966 25.5457C18.7749 25.5395 18.753 25.5333 18.7309 25.527C15.0055 24.4697 11.4904 22.4742 8.56015 19.544C5.62991 16.6138 3.6345 13.0987 2.57711 9.37324C2.57085 9.35115 2.56462 9.32925 2.55845 9.30753C2.38636 8.70202 2.25291 8.23247 2.25099 7.5886C2.2488 6.8527 2.48856 5.93076 2.84898 5.28915L2.84898 5.28915C3.16491 4.72674 3.58159 4.31049 4.12494 3.76769C4.151 3.74166 4.17734 3.71534 4.20398 3.68871L4.38789 3.5048C4.42551 3.46718 4.46271 3.42988 4.49955 3.39294C5.0064 2.88479 5.44455 2.44553 5.94924 2.19026L6.46985 3.21954L5.94924 2.19026Z" fill="#59626B"/>
</svg>
