<svg width="28" height="28" viewBox="0 0 28 28" fill="none" xmlns="http://www.w3.org/2000/svg">
<path fill-rule="evenodd" clip-rule="evenodd" d="M14.0003 4.6665C14.6447 4.6665 15.167 5.18884 15.167 5.83317V12.8332H22.167C22.8113 12.8332 23.3337 13.3555 23.3337 13.9998C23.3337 14.6442 22.8113 15.1665 22.167 15.1665H15.167V22.1665C15.167 22.8108 14.6447 23.3332 14.0003 23.3332C13.356 23.3332 12.8337 22.8108 12.8337 22.1665V15.1665H5.83366C5.18933 15.1665 4.66699 14.6442 4.66699 13.9998C4.66699 13.3555 5.18933 12.8332 5.83366 12.8332H12.8337V5.83317C12.8337 5.18884 13.356 4.6665 14.0003 4.6665Z" fill="#59626B"/>
</svg>
