<svg width="36" height="35" viewBox="0 0 36 35" fill="none" xmlns="http://www.w3.org/2000/svg">
<path fill-rule="evenodd" clip-rule="evenodd" d="M18.0002 4.37504C10.7514 4.37504 4.87516 10.2513 4.87516 17.5C4.87516 24.7488 10.7514 30.625 18.0002 30.625C25.2489 30.625 31.1252 24.7488 31.1252 17.5C31.1252 10.2513 25.2489 4.37504 18.0002 4.37504ZM1.9585 17.5C1.9585 8.64047 9.1406 1.45837 18.0002 1.45837C26.8597 1.45837 34.0418 8.64047 34.0418 17.5C34.0418 26.3596 26.8597 33.5417 18.0002 33.5417C9.1406 33.5417 1.9585 26.3596 1.9585 17.5ZM18.0002 10.2084C18.8056 10.2084 19.4585 10.8613 19.4585 11.6667V16.0417H23.8335C24.6389 16.0417 25.2918 16.6946 25.2918 17.5C25.2918 18.3055 24.6389 18.9584 23.8335 18.9584H19.4585V23.3334C19.4585 24.1388 18.8056 24.7917 18.0002 24.7917C17.1947 24.7917 16.5418 24.1388 16.5418 23.3334V18.9584H12.1668C11.3614 18.9584 10.7085 18.3055 10.7085 17.5C10.7085 16.6946 11.3614 16.0417 12.1668 16.0417H16.5418V11.6667C16.5418 10.8613 17.1947 10.2084 18.0002 10.2084Z" fill="#007AFF"/>
</svg>
