<svg width="28" height="28" viewBox="0 0 28 28" fill="none" xmlns="http://www.w3.org/2000/svg">
<path fill-rule="evenodd" clip-rule="evenodd" d="M14.0001 4.66634C11.7449 4.66634 9.91676 6.49451 9.91676 8.74967C9.91676 11.0048 11.7449 12.833 14.0001 12.833C16.2553 12.833 18.0834 11.0048 18.0834 8.74967C18.0834 6.49451 16.2553 4.66634 14.0001 4.66634ZM7.58343 8.74967C7.58343 5.20585 10.4563 2.33301 14.0001 2.33301C17.5439 2.33301 20.4168 5.20585 20.4168 8.74967C20.4168 12.2935 17.5439 15.1663 14.0001 15.1663C10.4563 15.1663 7.58343 12.2935 7.58343 8.74967ZM10.8807 16.9163C10.9473 16.9163 11.0149 16.9163 11.0834 16.9163H16.9168C16.9853 16.9163 17.0529 16.9163 17.1195 16.9163C18.5513 16.9158 19.529 16.9154 20.3601 17.1675C22.2244 17.7331 23.6834 19.192 24.2489 21.0563C24.501 21.8875 24.5007 22.8652 24.5001 24.297C24.5001 24.3636 24.5001 24.4311 24.5001 24.4997C24.5001 25.144 23.9778 25.6663 23.3334 25.6663C22.6891 25.6663 22.1668 25.144 22.1668 24.4997C22.1668 22.7866 22.1541 22.1887 22.0161 21.7337C21.6767 20.6151 20.8014 19.7397 19.6828 19.4004C19.2277 19.2623 18.6298 19.2497 16.9168 19.2497H11.0834C9.37039 19.2497 8.77251 19.2623 8.31743 19.4004C7.19883 19.7397 6.32347 20.6151 5.98414 21.7337C5.84609 22.1887 5.83343 22.7866 5.83343 24.4997C5.83343 25.144 5.3111 25.6663 4.66676 25.6663C4.02243 25.6663 3.5001 25.144 3.5001 24.4997C3.5001 24.4311 3.50007 24.3636 3.50005 24.297C3.49952 22.8652 3.49916 21.8875 3.75128 21.0563C4.31682 19.192 5.77576 17.7331 7.6401 17.1675C8.47124 16.9154 9.44892 16.9158 10.8807 16.9163Z" fill="#59626B"/>
</svg>
