<svg width="20" height="20" viewBox="0 0 20 20" fill="none" xmlns="http://www.w3.org/2000/svg">
<g clip-path="url(#clip0_8146_17545)">
<path fill-rule="evenodd" clip-rule="evenodd" d="M9.99998 2.49992C7.69879 2.49992 5.83331 4.3654 5.83331 6.66658C5.83331 8.01817 6.56759 9.06284 7.63235 10.1719C7.88668 10.4367 8.15085 10.6965 8.42325 10.9645L8.45298 10.9937C8.73258 11.2687 9.02085 11.5528 9.29589 11.8426C9.53727 12.097 9.77646 12.3639 9.99998 12.646C10.2235 12.3639 10.4627 12.097 10.7041 11.8426C10.9791 11.5528 11.2674 11.2687 11.547 10.9937L11.5767 10.9644C11.8491 10.6965 12.1133 10.4367 12.3676 10.1719C13.4324 9.06284 14.1666 8.01817 14.1666 6.66658C14.1666 4.3654 12.3012 2.49992 9.99998 2.49992ZM4.16665 6.66658C4.16665 3.44492 6.77832 0.833252 9.99998 0.833252C13.2216 0.833252 15.8333 3.44492 15.8333 6.66658C15.8333 8.70142 14.6926 10.1567 13.5699 11.3261C13.2985 11.6087 13.019 11.8836 12.7511 12.147L12.7157 12.1819C12.4338 12.4592 12.1654 12.7239 11.9131 12.9898C11.405 13.5253 11.0028 14.0243 10.7453 14.5393C10.6042 14.8216 10.3156 14.9999 9.99998 14.9999C9.68434 14.9999 9.39578 14.8216 9.25462 14.5393C8.99714 14.0243 8.59499 13.5253 8.08688 12.9898C7.83458 12.7239 7.56621 12.4592 7.28428 12.1819L7.24877 12.147C6.98092 11.8836 6.7014 11.6087 6.4301 11.3261C5.30737 10.1567 4.16665 8.70142 4.16665 6.66658ZM8.33331 6.66658C8.33331 5.74611 9.0795 4.99992 9.99998 4.99992C10.9205 4.99992 11.6666 5.74611 11.6666 6.66658C11.6666 7.58706 10.9205 8.33325 9.99998 8.33325C9.0795 8.33325 8.33331 7.58706 8.33331 6.66658ZM4.92909 11.5689C5.11485 11.99 4.92408 12.4819 4.50299 12.6677C3.79594 12.9796 3.27454 13.3315 2.94126 13.6811C2.61205 14.0264 2.49998 14.33 2.49998 14.5833C2.49998 15.0866 2.99352 15.8198 4.44939 16.475C5.82704 17.0949 7.78872 17.4999 9.99998 17.4999C12.2112 17.4999 14.1729 17.0949 15.5506 16.475C17.0064 15.8198 17.5 15.0866 17.5 14.5833C17.5 14.33 17.3879 14.0264 17.0587 13.6811C16.7254 13.3315 16.204 12.9796 15.497 12.6677C15.0759 12.4819 14.8851 11.99 15.0709 11.5689C15.2566 11.1478 15.7486 10.957 16.1697 11.1428C17.0054 11.5115 17.734 11.974 18.265 12.5311C18.8001 13.0923 19.1666 13.7875 19.1666 14.5833C19.1666 16.151 17.7947 17.2927 16.2345 17.9948C14.5961 18.7321 12.3911 19.1666 9.99998 19.1666C7.60886 19.1666 5.40388 18.7321 3.76545 17.9948C2.20525 17.2927 0.833313 16.151 0.833313 14.5833C0.833313 13.7875 1.19984 13.0923 1.73493 12.5311C2.26595 11.974 2.99455 11.5115 3.8303 11.1428C4.25139 10.957 4.74333 11.1478 4.92909 11.5689Z" fill="#59626B"/>
</g>
<defs>
<clipPath id="clip0_8146_17545">
<rect width="20" height="20" fill="white"/>
</clipPath>
</defs>
</svg>
