<svg width="23" height="24" viewBox="0 0 23 24" fill="none" xmlns="http://www.w3.org/2000/svg">
<path fill-rule="evenodd" clip-rule="evenodd" d="M9.58342 4.33317C6.40778 4.33317 3.83341 6.90753 3.83341 10.0832C3.83341 13.2588 6.40778 15.8332 9.58342 15.8332C12.7591 15.8332 15.3334 13.2588 15.3334 10.0832C15.3334 6.90753 12.7591 4.33317 9.58342 4.33317ZM1.91675 10.0832C1.91675 5.84899 5.34923 2.4165 9.58342 2.4165C13.8176 2.4165 17.2501 5.84899 17.2501 10.0832C17.2501 11.8548 16.6491 13.4861 15.64 14.7844L20.8027 19.9472C21.177 20.3215 21.177 20.9282 20.8027 21.3025C20.4285 21.6767 19.8217 21.6767 19.4474 21.3025L14.2847 16.1397C12.9865 17.1489 11.3551 17.7498 9.58342 17.7498C5.34923 17.7498 1.91675 14.3174 1.91675 10.0832Z" fill="#848488" fill-opacity="0.8"/>
</svg>
