<svg width="28" height="28" viewBox="0 0 28 28" fill="none" xmlns="http://www.w3.org/2000/svg">
<path fill-rule="evenodd" clip-rule="evenodd" d="M13.9997 4.66634C11.7445 4.66634 9.91634 6.49451 9.91634 8.74967C9.91634 11.0048 11.7445 12.833 13.9997 12.833C16.2548 12.833 18.083 11.0048 18.083 8.74967C18.083 6.49451 16.2548 4.66634 13.9997 4.66634ZM7.58301 8.74967C7.58301 5.20585 10.4559 2.33301 13.9997 2.33301C17.5435 2.33301 20.4163 5.20585 20.4163 8.74967C20.4163 12.2935 17.5435 15.1663 13.9997 15.1663C10.4559 15.1663 7.58301 12.2935 7.58301 8.74967ZM13.9997 19.833C10.2766 19.833 6.87522 21.4535 4.34854 24.1333C3.90653 24.6022 3.16816 24.6239 2.69934 24.1819C2.23053 23.7399 2.2088 23.0015 2.65081 22.5327C5.57431 19.4319 9.57244 17.4997 13.9997 17.4997C18.4269 17.4997 22.425 19.4319 25.3485 22.5327C25.7906 23.0015 25.7688 23.7399 25.3 24.1819C24.8312 24.6239 24.0928 24.6022 23.6508 24.1333C21.1241 21.4535 17.7227 19.833 13.9997 19.833Z" fill="#59626B"/>
</svg>
