<svg width="21" height="20" viewBox="0 0 21 20" fill="none" xmlns="http://www.w3.org/2000/svg">
<path fill-rule="evenodd" clip-rule="evenodd" d="M10.5002 2.50004C6.35803 2.50004 3.00016 5.85791 3.00016 10C3.00016 12.7751 4.50684 15.1991 6.75077 16.4972C7.14915 16.7276 7.28529 17.2374 7.05484 17.6358C6.82438 18.0342 6.31461 18.1703 5.91623 17.9399C3.17848 16.3562 1.3335 13.3941 1.3335 10C1.3335 4.93743 5.43755 0.833374 10.5002 0.833374C15.5628 0.833374 19.6668 4.93743 19.6668 10C19.6668 13.5366 17.6639 16.6039 14.7344 18.1321C14.7221 18.1385 14.7098 18.1449 14.6975 18.1514C14.4282 18.2921 14.129 18.4483 13.788 18.5372C13.4048 18.6372 13.0179 18.6434 12.5526 18.5803C12.1256 18.5225 11.6604 18.305 11.2978 18.0852C10.9353 17.8654 10.5273 17.5535 10.2785 17.2017C9.66521 16.3343 9.6659 15.5047 9.66676 14.4539C9.6668 14.414 9.66683 14.3739 9.66683 14.3334V8.67855L7.75609 10.5893C7.43065 10.9147 6.90301 10.9147 6.57758 10.5893C6.25214 10.2639 6.25214 9.73622 6.57757 9.41078L9.91091 6.07745C10.0672 5.92117 10.2792 5.83337 10.5002 5.83337C10.7212 5.83337 10.9331 5.92117 11.0894 6.07745L14.4228 9.41078C14.7482 9.73622 14.7482 10.2639 14.4228 10.5893C14.0973 10.9147 13.5697 10.9147 13.2442 10.5893L11.3335 8.67855V14.3334C11.3335 15.5428 11.3584 15.8421 11.6393 16.2394C11.6953 16.3186 11.8786 16.4883 12.1618 16.66C12.4451 16.8317 12.6803 16.9157 12.7764 16.9287C13.0985 16.9724 13.2549 16.9539 13.3675 16.9245C13.5067 16.8882 13.6443 16.8209 13.9636 16.6544C16.3642 15.4021 18.0002 12.8914 18.0002 10C18.0002 5.8579 14.6423 2.50004 10.5002 2.50004Z" fill="#59626B"/>
</svg>
