<svg width="29" height="20" viewBox="0 0 29 20" fill="none" xmlns="http://www.w3.org/2000/svg">
<path fill-rule="evenodd" clip-rule="evenodd" d="M28.4025 3.08479C28.2362 2.49051 27.9194 1.94921 27.4825 1.51333C27.0457 1.07744 26.5037 0.761728 25.9091 0.596762C23.6769 2.8529e-05 14.7036 2.86733e-05 14.7036 2.86733e-05C14.7036 2.86733e-05 5.74719 -0.014286 3.49177 0.596762C2.89808 0.762452 2.35717 1.07849 1.92132 1.51434C1.48547 1.95019 1.16943 2.4911 1.00374 3.08479C0.579853 5.36993 0.371083 7.68978 0.380167 10.0139C0.376031 12.3268 0.584769 14.6352 1.00374 16.9099C1.16997 17.5039 1.4861 18.0452 1.9218 18.4818C2.35749 18.9185 2.89812 19.2358 3.49177 19.4033C5.72393 20 14.7036 20 14.7036 20C14.7036 20 23.6546 20 25.9091 19.4033C26.5037 19.2365 27.0454 18.9195 27.4821 18.4828C27.9187 18.0462 28.2357 17.5045 28.4025 16.9099C28.8131 14.6366 29.0135 12.3248 28.9992 10.0139C29.0135 7.68779 28.8176 5.37242 28.4025 3.08479ZM11.8371 14.2966V5.71239L19.3066 10.0139L11.8371 14.2966Z" fill="#59626B"/>
</svg>
